<mxfile host="app.diagrams.net" agent="Mozilla/5.0 (Windows NT 10.0; Win64; x64) AppleWebKit/537.36 (KHTML, like Gecko) Chrome/130.0.0.0 Safari/537.36" version="24.8.6">
  <diagram id="mnQ6B_scSJATVWQPCOwr" name="Page-1">
    <mxGraphModel dx="880" dy="1526" grid="1" gridSize="10" guides="1" tooltips="1" connect="1" arrows="1" fold="1" page="1" pageScale="1" pageWidth="850" pageHeight="1100" math="0" shadow="0">
      <root>
        <mxCell id="0" />
        <mxCell id="1" parent="0" />
        <mxCell id="5QolHQuSoSyPRKmyyDn5-1" value="" style="ellipse;fillColor=strokeColor;html=1;" vertex="1" parent="1">
          <mxGeometry x="370" y="-250" width="30" height="30" as="geometry" />
        </mxCell>
        <mxCell id="5QolHQuSoSyPRKmyyDn5-3" value="" style="endArrow=open;endFill=1;endSize=12;html=1;rounded=0;exitX=0.5;exitY=1;exitDx=0;exitDy=0;" edge="1" parent="1" source="5QolHQuSoSyPRKmyyDn5-28">
          <mxGeometry width="160" relative="1" as="geometry">
            <mxPoint x="330" y="230" as="sourcePoint" />
            <mxPoint x="385" y="-80" as="targetPoint" />
          </mxGeometry>
        </mxCell>
        <mxCell id="5QolHQuSoSyPRKmyyDn5-4" value="Find Job Post" style="strokeWidth=2;html=1;shape=mxgraph.flowchart.terminator;whiteSpace=wrap;" vertex="1" parent="1">
          <mxGeometry x="320" y="160" width="130" height="60" as="geometry" />
        </mxCell>
        <mxCell id="5QolHQuSoSyPRKmyyDn5-5" value="" style="html=1;points=[];perimeter=orthogonalPerimeter;fillColor=strokeColor;direction=south;" vertex="1" parent="1">
          <mxGeometry x="345" y="260" width="80" height="5" as="geometry" />
        </mxCell>
        <mxCell id="5QolHQuSoSyPRKmyyDn5-9" value="View Job Post" style="html=1;align=right;verticalAlign=top;rounded=1;absoluteArcSize=1;arcSize=50;dashed=0;spacingTop=10;spacingRight=30;whiteSpace=wrap;" vertex="1" parent="1">
          <mxGeometry x="175" y="340" width="125" height="50" as="geometry" />
        </mxCell>
        <mxCell id="5QolHQuSoSyPRKmyyDn5-39" value="" style="edgeStyle=orthogonalEdgeStyle;rounded=0;orthogonalLoop=1;jettySize=auto;html=1;" edge="1" parent="1" source="5QolHQuSoSyPRKmyyDn5-10" target="5QolHQuSoSyPRKmyyDn5-37">
          <mxGeometry relative="1" as="geometry" />
        </mxCell>
        <mxCell id="5QolHQuSoSyPRKmyyDn5-10" value="Massage&amp;nbsp; &amp;nbsp;&amp;nbsp;" style="html=1;align=right;verticalAlign=top;rounded=1;absoluteArcSize=1;arcSize=50;dashed=0;spacingTop=10;spacingRight=30;whiteSpace=wrap;" vertex="1" parent="1">
          <mxGeometry x="320" y="532.2" width="150" height="50" as="geometry" />
        </mxCell>
        <mxCell id="5QolHQuSoSyPRKmyyDn5-11" value="Job Search" style="html=1;align=right;verticalAlign=top;rounded=1;absoluteArcSize=1;arcSize=50;dashed=0;spacingTop=10;spacingRight=30;whiteSpace=wrap;" vertex="1" parent="1">
          <mxGeometry x="480" y="340" width="130" height="50" as="geometry" />
        </mxCell>
        <mxCell id="5QolHQuSoSyPRKmyyDn5-12" value="" style="endArrow=open;endFill=1;endSize=12;html=1;rounded=0;entryX=0.5;entryY=0;entryDx=0;entryDy=0;" edge="1" parent="1" target="5QolHQuSoSyPRKmyyDn5-9">
          <mxGeometry width="160" relative="1" as="geometry">
            <mxPoint x="390" y="310" as="sourcePoint" />
            <mxPoint x="470" y="310" as="targetPoint" />
            <Array as="points">
              <mxPoint x="238" y="310" />
            </Array>
          </mxGeometry>
        </mxCell>
        <mxCell id="5QolHQuSoSyPRKmyyDn5-13" value="" style="endArrow=open;endFill=1;endSize=12;html=1;rounded=0;entryX=0.5;entryY=0;entryDx=0;entryDy=0;" edge="1" parent="1" target="5QolHQuSoSyPRKmyyDn5-11">
          <mxGeometry width="160" relative="1" as="geometry">
            <mxPoint x="390" y="310" as="sourcePoint" />
            <mxPoint x="550" y="310" as="targetPoint" />
            <Array as="points">
              <mxPoint x="545" y="310" />
            </Array>
          </mxGeometry>
        </mxCell>
        <mxCell id="5QolHQuSoSyPRKmyyDn5-15" value="" style="line;strokeWidth=2;direction=south;html=1;" vertex="1" parent="1">
          <mxGeometry x="380" y="265" width="10" height="45" as="geometry" />
        </mxCell>
        <mxCell id="5QolHQuSoSyPRKmyyDn5-19" value="Question Check" style="html=1;whiteSpace=wrap;aspect=fixed;shape=isoRectangle;" vertex="1" parent="1">
          <mxGeometry x="194" y="430" width="87" height="52.2" as="geometry" />
        </mxCell>
        <mxCell id="5QolHQuSoSyPRKmyyDn5-20" value="" style="endArrow=open;endFill=1;endSize=12;html=1;rounded=0;exitX=0.5;exitY=1;exitDx=0;exitDy=0;" edge="1" parent="1" source="5QolHQuSoSyPRKmyyDn5-9" target="5QolHQuSoSyPRKmyyDn5-19">
          <mxGeometry width="160" relative="1" as="geometry">
            <mxPoint x="230" y="390" as="sourcePoint" />
            <mxPoint x="390" y="390" as="targetPoint" />
          </mxGeometry>
        </mxCell>
        <mxCell id="5QolHQuSoSyPRKmyyDn5-21" value="" style="endArrow=open;endFill=1;endSize=12;html=1;rounded=0;entryX=0.5;entryY=0;entryDx=0;entryDy=0;" edge="1" parent="1" target="5QolHQuSoSyPRKmyyDn5-10">
          <mxGeometry width="160" relative="1" as="geometry">
            <mxPoint x="280" y="456" as="sourcePoint" />
            <mxPoint x="410" y="500" as="targetPoint" />
            <Array as="points">
              <mxPoint x="395" y="456" />
            </Array>
          </mxGeometry>
        </mxCell>
        <mxCell id="5QolHQuSoSyPRKmyyDn5-22" value="Drop Resume" style="html=1;align=right;verticalAlign=top;rounded=1;absoluteArcSize=1;arcSize=50;dashed=0;spacingTop=10;spacingRight=30;whiteSpace=wrap;" vertex="1" parent="1">
          <mxGeometry x="60" y="680" width="150" height="50" as="geometry" />
        </mxCell>
        <mxCell id="5QolHQuSoSyPRKmyyDn5-23" value="" style="endArrow=open;endFill=1;endSize=12;html=1;rounded=0;entryX=0.5;entryY=0;entryDx=0;entryDy=0;" edge="1" parent="1" target="5QolHQuSoSyPRKmyyDn5-22">
          <mxGeometry width="160" relative="1" as="geometry">
            <mxPoint x="197" y="456" as="sourcePoint" />
            <mxPoint x="240" y="500" as="targetPoint" />
            <Array as="points">
              <mxPoint x="135" y="456" />
            </Array>
          </mxGeometry>
        </mxCell>
        <mxCell id="5QolHQuSoSyPRKmyyDn5-26" value="" style="ellipse;html=1;shape=endState;fillColor=#000000;strokeColor=#ff0000;" vertex="1" parent="1">
          <mxGeometry x="350" y="980" width="40" height="40" as="geometry" />
        </mxCell>
        <mxCell id="5QolHQuSoSyPRKmyyDn5-29" value="Log in&lt;span style=&quot;white-space: pre;&quot;&gt;&#x9;&lt;/span&gt;&amp;nbsp; &amp;nbsp;" style="html=1;align=right;verticalAlign=top;rounded=1;absoluteArcSize=1;arcSize=50;dashed=0;spacingTop=10;spacingRight=30;whiteSpace=wrap;" vertex="1" parent="1">
          <mxGeometry x="300" y="-80" width="170" height="40" as="geometry" />
        </mxCell>
        <mxCell id="5QolHQuSoSyPRKmyyDn5-35" value="" style="edgeStyle=orthogonalEdgeStyle;rounded=0;orthogonalLoop=1;jettySize=auto;html=1;" edge="1" parent="1" source="5QolHQuSoSyPRKmyyDn5-30" target="5QolHQuSoSyPRKmyyDn5-33">
          <mxGeometry relative="1" as="geometry" />
        </mxCell>
        <mxCell id="5QolHQuSoSyPRKmyyDn5-30" value="Authentication&amp;nbsp;&amp;nbsp;" style="html=1;align=right;verticalAlign=top;rounded=1;absoluteArcSize=1;arcSize=50;dashed=0;spacingTop=10;spacingRight=30;whiteSpace=wrap;" vertex="1" parent="1">
          <mxGeometry x="300" width="170" height="40" as="geometry" />
        </mxCell>
        <mxCell id="5QolHQuSoSyPRKmyyDn5-31" value="" style="endArrow=open;endFill=1;endSize=12;html=1;rounded=0;exitX=0.5;exitY=1;exitDx=0;exitDy=0;" edge="1" parent="1" source="5QolHQuSoSyPRKmyyDn5-1" target="5QolHQuSoSyPRKmyyDn5-28">
          <mxGeometry width="160" relative="1" as="geometry">
            <mxPoint x="385" y="-220" as="sourcePoint" />
            <mxPoint x="385" y="-80" as="targetPoint" />
          </mxGeometry>
        </mxCell>
        <mxCell id="5QolHQuSoSyPRKmyyDn5-28" value="Registration&amp;nbsp; &amp;nbsp; &amp;nbsp;" style="html=1;align=right;verticalAlign=top;rounded=1;absoluteArcSize=1;arcSize=50;dashed=0;spacingTop=10;spacingRight=30;whiteSpace=wrap;" vertex="1" parent="1">
          <mxGeometry x="300" y="-170" width="170" height="40" as="geometry" />
        </mxCell>
        <mxCell id="5QolHQuSoSyPRKmyyDn5-32" value="" style="endArrow=open;endFill=1;endSize=12;html=1;rounded=0;exitX=0.5;exitY=1;exitDx=0;exitDy=0;" edge="1" parent="1" source="5QolHQuSoSyPRKmyyDn5-29" target="5QolHQuSoSyPRKmyyDn5-30">
          <mxGeometry width="160" relative="1" as="geometry">
            <mxPoint x="370" y="-50" as="sourcePoint" />
            <mxPoint x="530" y="-50" as="targetPoint" />
          </mxGeometry>
        </mxCell>
        <mxCell id="5QolHQuSoSyPRKmyyDn5-36" value="" style="edgeStyle=orthogonalEdgeStyle;rounded=0;orthogonalLoop=1;jettySize=auto;html=1;" edge="1" parent="1" source="5QolHQuSoSyPRKmyyDn5-33" target="5QolHQuSoSyPRKmyyDn5-4">
          <mxGeometry relative="1" as="geometry" />
        </mxCell>
        <mxCell id="5QolHQuSoSyPRKmyyDn5-33" value="Check" style="html=1;whiteSpace=wrap;aspect=fixed;shape=isoRectangle;" vertex="1" parent="1">
          <mxGeometry x="335" y="60" width="100" height="60" as="geometry" />
        </mxCell>
        <mxCell id="5QolHQuSoSyPRKmyyDn5-34" value="" style="edgeStyle=segmentEdgeStyle;endArrow=classic;html=1;curved=0;rounded=0;endSize=8;startSize=8;exitX=0.95;exitY=0.5;exitDx=0;exitDy=0;exitPerimeter=0;entryX=1;entryY=0.5;entryDx=0;entryDy=0;" edge="1" parent="1" source="5QolHQuSoSyPRKmyyDn5-33" target="5QolHQuSoSyPRKmyyDn5-29">
          <mxGeometry width="50" height="50" relative="1" as="geometry">
            <mxPoint x="490" y="90" as="sourcePoint" />
            <mxPoint x="550" y="-60" as="targetPoint" />
            <Array as="points">
              <mxPoint x="550" y="90" />
              <mxPoint x="550" y="-60" />
            </Array>
          </mxGeometry>
        </mxCell>
        <mxCell id="5QolHQuSoSyPRKmyyDn5-50" style="edgeStyle=orthogonalEdgeStyle;rounded=0;orthogonalLoop=1;jettySize=auto;html=1;entryX=1;entryY=0.5;entryDx=0;entryDy=0;" edge="1" parent="1" source="5QolHQuSoSyPRKmyyDn5-37" target="5QolHQuSoSyPRKmyyDn5-22">
          <mxGeometry relative="1" as="geometry" />
        </mxCell>
        <mxCell id="5QolHQuSoSyPRKmyyDn5-37" value="Query" style="html=1;whiteSpace=wrap;aspect=fixed;shape=isoRectangle;" vertex="1" parent="1">
          <mxGeometry x="368.25" y="610" width="53.5" height="32.1" as="geometry" />
        </mxCell>
        <mxCell id="5QolHQuSoSyPRKmyyDn5-44" value="Query&amp;nbsp;&lt;div&gt;Matched&lt;/div&gt;" style="text;html=1;align=center;verticalAlign=middle;resizable=0;points=[];autosize=1;strokeColor=none;fillColor=none;" vertex="1" parent="1">
          <mxGeometry x="285" y="630" width="70" height="40" as="geometry" />
        </mxCell>
        <mxCell id="5QolHQuSoSyPRKmyyDn5-45" value="" style="endArrow=open;endFill=1;endSize=12;html=1;rounded=0;exitX=1.061;exitY=0.561;exitDx=0;exitDy=0;exitPerimeter=0;entryX=0.123;entryY=1.06;entryDx=0;entryDy=0;entryPerimeter=0;" edge="1" parent="1" source="5QolHQuSoSyPRKmyyDn5-37" target="5QolHQuSoSyPRKmyyDn5-11">
          <mxGeometry width="160" relative="1" as="geometry">
            <mxPoint x="460" y="680" as="sourcePoint" />
            <mxPoint x="620" y="680" as="targetPoint" />
            <Array as="points">
              <mxPoint x="496" y="630" />
            </Array>
          </mxGeometry>
        </mxCell>
        <mxCell id="5QolHQuSoSyPRKmyyDn5-46" value="else" style="text;html=1;align=center;verticalAlign=middle;resizable=0;points=[];autosize=1;strokeColor=none;fillColor=none;" vertex="1" parent="1">
          <mxGeometry x="140" y="420" width="50" height="30" as="geometry" />
        </mxCell>
        <mxCell id="5QolHQuSoSyPRKmyyDn5-47" value="If Questions" style="text;html=1;align=center;verticalAlign=middle;resizable=0;points=[];autosize=1;strokeColor=none;fillColor=none;" vertex="1" parent="1">
          <mxGeometry x="265" y="418" width="90" height="30" as="geometry" />
        </mxCell>
        <mxCell id="5QolHQuSoSyPRKmyyDn5-54" style="edgeStyle=orthogonalEdgeStyle;rounded=0;orthogonalLoop=1;jettySize=auto;html=1;entryX=1;entryY=0.5;entryDx=0;entryDy=0;" edge="1" parent="1" source="5QolHQuSoSyPRKmyyDn5-51" target="5QolHQuSoSyPRKmyyDn5-9">
          <mxGeometry relative="1" as="geometry" />
        </mxCell>
        <mxCell id="5QolHQuSoSyPRKmyyDn5-51" value="Searching" style="html=1;whiteSpace=wrap;aspect=fixed;shape=isoRectangle;" vertex="1" parent="1">
          <mxGeometry x="520" y="410" width="100" height="60" as="geometry" />
        </mxCell>
        <mxCell id="5QolHQuSoSyPRKmyyDn5-55" value="&lt;span style=&quot;text-wrap-mode: wrap;&quot;&gt;Job&lt;/span&gt;&lt;div style=&quot;text-wrap-mode: wrap;&quot;&gt;Found&lt;/div&gt;" style="text;html=1;align=center;verticalAlign=middle;resizable=0;points=[];autosize=1;strokeColor=none;fillColor=none;" vertex="1" parent="1">
          <mxGeometry x="490" y="442.2" width="60" height="40" as="geometry" />
        </mxCell>
        <mxCell id="5QolHQuSoSyPRKmyyDn5-58" style="edgeStyle=orthogonalEdgeStyle;rounded=0;orthogonalLoop=1;jettySize=auto;html=1;entryX=0.5;entryY=0;entryDx=0;entryDy=0;" edge="1" parent="1" source="5QolHQuSoSyPRKmyyDn5-57" target="5QolHQuSoSyPRKmyyDn5-26">
          <mxGeometry relative="1" as="geometry" />
        </mxCell>
        <mxCell id="5QolHQuSoSyPRKmyyDn5-57" value="Log Out&amp;nbsp; &amp;nbsp;" style="html=1;align=right;verticalAlign=top;rounded=1;absoluteArcSize=1;arcSize=74;dashed=0;spacingTop=10;spacingRight=30;whiteSpace=wrap;" vertex="1" parent="1">
          <mxGeometry x="295" y="900" width="150" height="50" as="geometry" />
        </mxCell>
        <mxCell id="5QolHQuSoSyPRKmyyDn5-60" value="" style="edgeStyle=orthogonalEdgeStyle;rounded=0;orthogonalLoop=1;jettySize=auto;html=1;" edge="1" parent="1" source="5QolHQuSoSyPRKmyyDn5-59" target="5QolHQuSoSyPRKmyyDn5-57">
          <mxGeometry relative="1" as="geometry">
            <Array as="points">
              <mxPoint x="360" y="900" />
              <mxPoint x="360" y="900" />
            </Array>
          </mxGeometry>
        </mxCell>
        <mxCell id="5QolHQuSoSyPRKmyyDn5-59" value="" style="html=1;points=[];perimeter=orthogonalPerimeter;fillColor=strokeColor;direction=south;" vertex="1" parent="1">
          <mxGeometry x="320" y="870" width="80" height="5" as="geometry" />
        </mxCell>
        <mxCell id="5QolHQuSoSyPRKmyyDn5-67" value="" style="endArrow=none;html=1;rounded=0;" edge="1" parent="1">
          <mxGeometry width="50" height="50" relative="1" as="geometry">
            <mxPoint x="360" y="840" as="sourcePoint" />
            <mxPoint x="140" y="730" as="targetPoint" />
            <Array as="points">
              <mxPoint x="140" y="840" />
            </Array>
          </mxGeometry>
        </mxCell>
        <mxCell id="5QolHQuSoSyPRKmyyDn5-68" value="" style="endArrow=none;html=1;rounded=0;entryX=0.46;entryY=1;entryDx=0;entryDy=0;entryPerimeter=0;" edge="1" parent="1" target="5QolHQuSoSyPRKmyyDn5-51">
          <mxGeometry width="50" height="50" relative="1" as="geometry">
            <mxPoint x="360" y="870" as="sourcePoint" />
            <mxPoint x="630" y="660" as="targetPoint" />
            <Array as="points">
              <mxPoint x="360" y="840" />
              <mxPoint x="566" y="840" />
            </Array>
          </mxGeometry>
        </mxCell>
        <mxCell id="5QolHQuSoSyPRKmyyDn5-69" value="" style="endArrow=none;html=1;rounded=0;exitX=0.8;exitY=0.513;exitDx=0;exitDy=0;exitPerimeter=0;entryX=0.5;entryY=1;entryDx=0;entryDy=0;entryPerimeter=0;" edge="1" parent="1" source="5QolHQuSoSyPRKmyyDn5-5" target="5QolHQuSoSyPRKmyyDn5-4">
          <mxGeometry width="50" height="50" relative="1" as="geometry">
            <mxPoint x="340" y="270" as="sourcePoint" />
            <mxPoint x="390" y="220" as="targetPoint" />
          </mxGeometry>
        </mxCell>
        <mxCell id="5QolHQuSoSyPRKmyyDn5-70" value="" style="endArrow=classic;html=1;rounded=0;" edge="1" parent="1">
          <mxGeometry width="50" height="50" relative="1" as="geometry">
            <mxPoint x="570" y="390" as="sourcePoint" />
            <mxPoint x="570" y="410" as="targetPoint" />
          </mxGeometry>
        </mxCell>
        <mxCell id="5QolHQuSoSyPRKmyyDn5-71" value="else" style="text;html=1;align=center;verticalAlign=middle;resizable=0;points=[];autosize=1;strokeColor=none;fillColor=none;" vertex="1" parent="1">
          <mxGeometry x="570" y="470" width="50" height="30" as="geometry" />
        </mxCell>
        <mxCell id="5QolHQuSoSyPRKmyyDn5-72" value="else" style="text;html=1;align=center;verticalAlign=middle;resizable=0;points=[];autosize=1;strokeColor=none;fillColor=none;" vertex="1" parent="1">
          <mxGeometry x="425" y="628" width="50" height="30" as="geometry" />
        </mxCell>
        <mxCell id="5QolHQuSoSyPRKmyyDn5-73" value="Incorrect" style="text;html=1;align=center;verticalAlign=middle;resizable=0;points=[];autosize=1;strokeColor=none;fillColor=none;" vertex="1" parent="1">
          <mxGeometry x="425" y="58" width="70" height="30" as="geometry" />
        </mxCell>
        <mxCell id="5QolHQuSoSyPRKmyyDn5-74" value="Correct" style="text;html=1;align=center;verticalAlign=middle;resizable=0;points=[];autosize=1;strokeColor=none;fillColor=none;" vertex="1" parent="1">
          <mxGeometry x="385" y="120" width="60" height="30" as="geometry" />
        </mxCell>
      </root>
    </mxGraphModel>
  </diagram>
</mxfile>
